<?xml version="1.0" encoding="UTF-8"?>
<svg id="Layer_2" data-name="Layer 2" xmlns="http://www.w3.org/2000/svg" xmlns:xlink="http://www.w3.org/1999/xlink" viewBox="0 0 4596.96 4596.14">
  <defs>
    <style>
      .cls-1, .cls-2 {
        stroke: #707070;
      }

      .cls-1, .cls-2, .cls-3 {
        fill: #fff;
      }

      .cls-4 {
        fill: url(#linear-gradient);
      }

      .cls-4, .cls-5, .cls-3 {
        stroke-width: 0px;
      }

      .cls-2 {
        stroke-miterlimit: 10;
      }

      .cls-6 {
        stroke-width: 50px;
      }

      .cls-6, .cls-7, .cls-8 {
        fill: none;
        stroke: #fff;
      }

      .cls-7 {
        stroke-width: 75px;
      }

      .cls-5 {
        fill: #e47717;
      }

      .cls-8 {
        stroke-width: 100px;
      }
    </style>
    <linearGradient id="linear-gradient" x1="2309.01" y1="3283.15" x2="2309.01" y2="64.94" gradientUnits="userSpaceOnUse">
      <stop offset="0" stop-color="#f6ef1c"/>
      <stop offset=".03" stop-color="#f6df1e"/>
      <stop offset=".11" stop-color="#f6bb24"/>
      <stop offset=".2" stop-color="#f69d2a"/>
      <stop offset=".29" stop-color="#f6852e"/>
      <stop offset=".4" stop-color="#f67231"/>
      <stop offset=".53" stop-color="#f66534"/>
      <stop offset=".69" stop-color="#f65d35"/>
      <stop offset="1" stop-color="#f75b36"/>
    </linearGradient>
  </defs>
  <g id="Layer_1-2" data-name="Layer 1">
    <path class="cls-4" d="m3084.96,2021.65c0,546.23-370.31,1134.16-648.08,1289.73-45.84,25.68-89.15,39.58-127.87,39.58s-84.32-14.64-131.5-41.63c-277.36-158.63-644.45-743.82-644.45-1287.68,0-897.89,775.95-1637.65,775.95-2021.65,0,384,775.95,1123.76,775.95,2021.65Z"/>
    <path class="cls-3" d="m2436.88,3311.38c-45.84,25.68-89.15,39.58-127.87,39.58s-84.32-14.64-131.5-41.63c26.25-35.98,66.97-60.07,112.43-64.76,12.1-1.25,24.54-1.13,37.13.51,45.4,5.91,84.71,30.69,109.81,66.3Z"/>
    <path id="Path_3" data-name="Path 3" class="cls-8" d="m2315.18,3290.82l-416.66-763.46"/>
    <line id="Line_2" data-name="Line 2" class="cls-7" x1="2583.93" y1="2090.28" x2="1898.52" y2="2527.36"/>
    <line id="Line_3" data-name="Line 3" class="cls-6" x1="2306.91" y1="1640.13" x2="2583.93" y2="2090.28"/>
    <g id="Component_1_2" data-name="Component 1 2">
      <g id="Ellipse_2" data-name="Ellipse 2">
        <circle class="cls-2" cx="1904.22" cy="2527.36" r="96.23"/>
      </g>
    </g>
    <g id="Component_1_3" data-name="Component 1 3">
      <g id="Ellipse_2-2" data-name="Ellipse 2-2">
        <circle class="cls-1" cx="2576.34" cy="2078.82" r="70.42"/>
      </g>
    </g>
    <line id="Line_4" data-name="Line 4" class="cls-6" x1="2306.66" y1="1614.39" x2="2307.16" y2="1519.97"/>
    <g id="Component_1_4" data-name="Component 1 4">
      <g id="Ellipse_2-3" data-name="Ellipse 2-3">
        <circle class="cls-1" cx="2309.43" cy="1646.65" r="62.02"/>
      </g>
    </g>
    <line id="Line_5" data-name="Line 5" class="cls-6" x1="2158.77" y1="1507.95" x2="2454.12" y2="1507.95"/>
    <line id="Line_6" data-name="Line 6" class="cls-6" x1="2170.78" y1="1331.74" x2="2170.78" y2="1518.97"/>
    <line id="Line_7" data-name="Line 7" class="cls-6" x1="2442.1" y1="1332.75" x2="2442.1" y2="1519.97"/>
    <path class="cls-5" d="m2298.21,4596.14C396.29,4596.14-34.57,3281.36,2.1,3249.97c36.67-31.39,546.02,238.88,1109.23,255.28,423.16,12.32,892.36-132.99,1196.36-132.99s812.24,154.98,1211.45,134.73c570.67-28.94,1039.05-304.08,1075.72-257.02,36.67,47.06-394.73,1346.17-2296.65,1346.17Z"/>
    <path class="cls-3" d="m1199.22,3761.18h104l99,325h-91l-37-158c-8-31-16-70.5-24-103h-2c-7,33-15,72-23,103l-37,158h-88l99-325Zm-28,189.5h159v66.5h-159v-66.5Z"/>
    <path class="cls-3" d="m1474.22,3761.18h96c99,0,167,46,167,161s-68,164-162,164h-101v-325Zm91,256c47,0,84-19,84-95s-37-92-84-92h-5v187h5Z"/>
    <path class="cls-3" d="m1891.22,3761.18h104l99,325h-91l-37-158c-8-31-16-70.5-24-103h-2c-7,33-15,72-23,103l-37,158h-88l99-325Zm-28,189.5h159v66.5h-159v-66.5Z"/>
    <path class="cls-3" d="m2164.23,3761.18h88l72,145,31,73h2c-4-35-11-84-11-124v-94h82v325h-88l-72-145.5-31-72.5h-2c4,37,11,84,11,124v94h-82v-325Z"/>
    <path class="cls-3" d="m2520.22,3761.18h86v121h2l82-121h94l-97,132,116,193h-94l-72-125-31,44v81h-86v-325Z"/>
    <path class="cls-3" d="m2960.22,3761.18h104l99,325h-91l-37-158c-8-31-16-70.5-24-103h-2c-7,33-15,72-23,103l-37,158h-88l99-325Zm-28,189.5h159v66.5h-159v-66.5Z"/>
    <path class="cls-3" d="m3318.22,3761.18h104l99,325h-91l-37-158c-8-31-16-70.5-24-103h-2c-7,33-15,72-23,103l-37,158h-88l99-325Zm-28,189.5h159v66.5h-159v-66.5Z"/>
  </g>
</svg>